<?xml version="1.0" encoding="UTF-8" standalone="no"?>
<!-- Created with Inkscape (http://www.inkscape.org/) -->

<svg
   width="375"
   height="667"
   viewBox="0 0 99.218747 176.47708"
   version="1.1"
   id="svg5"
   inkscape:version="1.1.2 (0a00cf5339, 2022-02-04)"
   sodipodi:docname="imageApp.svg"
   xmlns:inkscape="http://www.inkscape.org/namespaces/inkscape"
   xmlns:sodipodi="http://sodipodi.sourceforge.net/DTD/sodipodi-0.dtd"
   xmlns="http://www.w3.org/2000/svg"
   xmlns:svg="http://www.w3.org/2000/svg">
  <sodipodi:namedview
     id="namedview7"
     pagecolor="#ffffff"
     bordercolor="#666666"
     borderopacity="1.0"
     inkscape:pageshadow="2"
     inkscape:pageopacity="0.0"
     inkscape:pagecheckerboard="0"
     inkscape:document-units="mm"
     showgrid="false"
     inkscape:zoom="1.096075"
     inkscape:cx="6.3864241"
     inkscape:cy="303.81132"
     inkscape:window-width="1920"
     inkscape:window-height="1048"
     inkscape:window-x="0"
     inkscape:window-y="1080"
     inkscape:window-maximized="1"
     inkscape:current-layer="layer1"
     width="375px"
     units="px" />
  <defs
     id="defs2" />
  <g
     inkscape:label="Capa 1"
     inkscape:groupmode="layer"
     id="layer1">
    <rect
       style="fill:#000000;stroke:#ffffff;stroke-width:0;stroke-linejoin:round"
       id="rect41281"
       width="100.22807"
       height="176.59456"
       x="-0.31374234"
       y="-0.12109981" />
    <g
       transform="matrix(0.00742921,0,0,-0.00661921,12.367445,118.63184)"
       fill="#000000"
       stroke="none"
       id="g21"
       style="fill:#ffffff;stroke-width:5.03066">
      <path
         d="m 3887,9264 c -14,-14 -7,-40 28,-91 54,-80 130,-228 173,-338 63,-159 68,-147 -45,-108 -216,75 -423,113 -616,113 -165,-1 -323,-37 -338,-77 -7,-18 6,-31 95,-96 56,-42 135,-111 176,-154 l 75,-78 -82,-7 c -116,-9 -239,-34 -346,-69 -202,-66 -465,-216 -609,-349 -98,-90 -91,-120 28,-120 85,0 280,-24 342,-42 l 43,-13 -98,-69 c -342,-242 -570,-492 -719,-788 -50,-99 -51,-108 -26,-132 18,-15 24,-14 115,29 96,46 232,86 336,100 l 55,7 -55,-68 c -29,-38 -74,-94 -98,-124 -152,-187 -325,-511 -410,-765 -74,-221 -87,-318 -44,-332 6,-2 48,27 94,65 46,38 111,86 144,109 61,41 187,113 198,113 3,0 -34,-84 -83,-187 -179,-383 -289,-750 -294,-975 -1,-71 0,-73 24,-76 21,-2 50,22 160,131 116,114 271,237 300,237 5,0 -24,-67 -64,-148 -346,-696 -460,-978 -555,-1368 -55,-226 -74,-373 -74,-559 0,-193 15,-274 78,-401 39,-80 108,-164 135,-164 36,0 42,23 26,104 -32,150 -16,284 46,397 18,32 33,57 34,56 2,-1 8,-43 15,-92 20,-154 66,-264 151,-362 98,-114 235,-196 388,-233 114,-27 138,-26 152,5 10,23 7,30 -43,82 -98,104 -163,217 -195,342 -23,93 -17,241 14,302 32,65 65,78 123,49 134,-68 199,-180 199,-346 0,-59 8,-74 40,-74 33,0 52,20 85,92 35,77 55,176 55,279 0,166 -49,269 -198,417 l -104,104 6,60 c 10,83 49,228 85,315 34,82 109,213 122,213 5,0 9,-26 9,-57 0,-120 52,-362 122,-568 48,-143 152,-349 244,-487 l 85,-126 -47,-72 c -106,-164 -154,-316 -154,-485 0,-120 18,-202 64,-293 38,-75 122,-192 139,-192 5,0 8,-3 4,-6 -3,-3 -41,-10 -84,-15 -217,-27 -370,-88 -484,-196 -107,-102 -195,-270 -187,-362 3,-31 7,-36 31,-39 21,-3 38,6 65,30 58,53 124,95 214,138 74,36 218,84 218,73 0,-2 -24,-36 -54,-76 -96,-128 -156,-272 -156,-372 0,-54 12,-75 43,-75 10,0 64,44 120,98 117,111 208,182 315,243 70,40 211,98 276,113 l 29,7 -42,-47 c -96,-109 -160,-249 -168,-365 -6,-84 5,-119 38,-119 11,0 72,44 137,101 211,181 386,286 557,333 50,13 103,29 120,36 88,34 142,116 132,201 -8,65 -34,112 -141,253 -141,187 -187,313 -152,426 31,103 27,102 173,33 153,-73 271,-114 413,-145 90,-19 134,-22 315,-22 179,0 225,3 311,22 137,30 285,82 415,148 60,30 113,54 118,54 21,0 55,-94 55,-155 -1,-118 -46,-215 -176,-380 -121,-153 -150,-241 -109,-331 32,-69 75,-95 256,-149 180,-54 357,-165 582,-365 37,-33 75,-60 84,-60 54,0 65,103 23,228 -27,83 -72,162 -135,242 -21,27 -39,52 -39,54 0,8 169,-53 225,-81 130,-66 268,-167 406,-300 104,-99 139,-97 139,9 0,104 -56,235 -156,366 -31,42 -49,72 -40,72 24,0 165,-49 219,-76 62,-32 154,-93 202,-135 48,-42 89,-38 93,9 5,48 -31,156 -75,231 -105,175 -330,301 -587,327 -92,9 -91,7 -36,76 113,139 156,278 147,462 -3,61 -13,138 -22,171 -21,77 -84,212 -136,292 -23,34 -39,66 -37,70 1,4 36,56 75,115 134,197 223,386 289,613 42,143 80,330 89,439 l 7,79 40,-63 c 80,-125 151,-331 164,-471 l 7,-66 -104,-104 c -111,-110 -155,-180 -184,-289 -30,-113 -13,-285 39,-405 32,-72 52,-95 81,-95 34,0 42,17 48,108 11,150 78,252 203,309 52,24 56,24 80,8 62,-40 90,-195 60,-335 -27,-128 -107,-271 -201,-360 -50,-47 -58,-65 -44,-91 10,-19 17,-21 67,-15 85,10 229,62 307,111 84,52 189,159 232,235 41,72 70,164 86,275 l 13,90 31,-60 c 17,-33 38,-84 47,-114 20,-69 21,-205 1,-290 -18,-75 -13,-101 20,-101 32,0 103,81 143,163 110,224 106,529 -15,1002 -86,336 -227,689 -537,1338 -36,75 -62,137 -59,137 3,0 45,-26 92,-57 54,-35 134,-105 214,-185 154,-155 170,-160 175,-59 9,191 -122,622 -303,999 -46,94 -81,172 -78,172 3,0 39,-18 79,-41 90,-49 211,-135 282,-200 59,-54 71,-58 94,-31 13,15 13,27 2,94 -27,153 -127,425 -221,597 -79,147 -178,296 -289,437 -58,74 -104,137 -101,141 9,9 206,-37 291,-68 43,-15 99,-40 123,-55 38,-22 49,-24 69,-15 34,15 31,43 -15,137 -81,166 -257,403 -393,529 -84,78 -234,196 -341,270 -75,51 -85,60 -68,67 45,16 202,38 316,44 123,7 145,13 145,44 0,27 -129,142 -248,221 -243,163 -500,256 -762,277 l -95,8 95,95 c 52,52 130,119 173,148 98,68 103,90 24,119 -136,51 -409,55 -627,8 -119,-25 -294,-78 -342,-102 -34,-18 -34,-12 -4,68 31,83 89,197 170,336 36,62 66,119 66,126 0,34 -26,37 -121,12 -296,-77 -662,-292 -792,-465 l -44,-59 -18,57 c -56,181 -215,379 -357,447 -69,32 -66,48 -84,-369 l -7,-148 -66,63 c -184,176 -435,333 -671,421 -144,53 -296,88 -313,71 z m 113,-1474 c 124,-30 281,-111 512,-266 301,-201 409,-245 603,-247 196,-1 313,46 625,252 118,79 256,163 308,188 103,49 259,93 332,93 142,0 265,-56 389,-175 46,-45 81,-86 78,-92 -3,-5 -48,-13 -99,-16 -248,-17 -517,-108 -724,-247 -100,-68 -240,-203 -303,-294 -83,-121 -147,-266 -165,-373 -7,-40 -7,-41 37,-67 61,-35 120,-105 169,-198 57,-110 137,-187 253,-244 117,-57 185,-74 321,-81 179,-9 384,35 588,126 80,36 104,38 139,11 49,-39 62,-105 61,-305 0,-207 -16,-303 -84,-498 -127,-368 -342,-676 -643,-920 -402,-325 -839,-478 -1327,-464 -262,8 -473,53 -705,152 -628,267 -1082,805 -1226,1455 -31,138 -34,411 -6,502 18,61 54,98 92,98 12,0 79,-23 148,-50 308,-124 552,-142 781,-59 159,58 261,146 336,290 49,95 96,150 157,186 26,15 43,32 43,43 0,33 -51,183 -87,255 -108,215 -300,403 -531,519 -198,100 -441,165 -614,166 -33,0 -60,5 -64,12 -11,18 151,167 223,205 118,64 239,77 383,43 z m 9,-545 c 95,-25 162,-65 236,-139 111,-112 165,-242 165,-399 0,-227 -128,-416 -340,-502 -67,-27 -239,-33 -315,-10 -240,69 -395,274 -395,520 0,151 53,278 160,386 131,133 321,189 489,144 z m 2464,0 c 234,-61 390,-256 404,-505 10,-168 -36,-289 -152,-405 -112,-113 -215,-155 -375,-155 -182,0 -334,81 -434,232 -53,79 -77,158 -83,270 -10,174 47,320 171,435 131,123 306,171 469,128 z"
         id="path9"
         style="fill:#ffffff;stroke-width:5.03066" />
      <path
         d="m 4713,6330 c -17,-10 -37,-29 -44,-41 -17,-32 -15,-93 4,-119 20,-29 243,-160 272,-160 33,0 55,31 55,77 0,34 -11,58 -61,132 -33,50 -75,99 -93,111 -42,25 -92,26 -133,0 z"
         id="path11"
         style="fill:#ffffff;stroke-width:5.03066" />
      <path
         d="m 5404,6331 c -62,-38 -164,-192 -164,-248 0,-36 29,-73 57,-73 9,0 71,30 136,68 158,88 187,135 134,213 -40,60 -105,76 -163,40 z"
         id="path13"
         style="fill:#ffffff;stroke-width:5.03066" />
      <path
         d="m 3380,5845 c -35,-42 26,-314 114,-515 102,-233 221,-405 406,-590 156,-156 272,-242 450,-334 537,-276 1138,-256 1647,55 230,141 455,363 613,604 156,239 292,640 258,762 -8,30 -12,33 -47,33 -21,0 -58,-7 -82,-15 -97,-35 -313,-88 -449,-111 -385,-65 -1026,-90 -1645,-64 -548,24 -869,70 -1114,159 -94,34 -132,38 -151,16 z m 505,-281 c 58,-15 105,-30 105,-34 0,-4 -10,-29 -22,-56 -12,-27 -36,-96 -54,-154 l -32,-105 -27,59 c -45,102 -100,316 -81,316 4,0 54,-12 111,-26 z m 2585,-2 c 0,-66 -88,-332 -109,-332 -5,0 -16,30 -26,68 -10,37 -33,105 -51,151 -19,47 -33,86 -31,87 3,3 188,51 205,53 7,0 12,-11 12,-27 z m -2165,-67 c 124,-10 145,-15 145,-34 0,-9 -4,-21 -9,-26 -18,-21 -63,-154 -79,-239 -10,-49 -22,-91 -28,-93 -15,-5 -82,113 -104,185 -27,86 -44,186 -37,207 4,10 14,14 24,11 10,-2 50,-7 88,-11 z m 1746,3 c 8,-93 -74,-345 -126,-388 -22,-18 -31,-4 -39,60 -10,76 -35,160 -68,233 -17,37 -28,71 -24,75 4,4 60,12 124,18 64,6 120,12 125,13 4,0 7,-5 8,-11 z m -1085,-43 c 3,-8 -14,-65 -39,-127 -25,-62 -55,-157 -66,-212 -11,-54 -22,-101 -25,-104 -18,-17 -75,81 -116,198 -21,61 -59,220 -60,248 0,19 299,17 306,-3 z m 614,-9 c 0,-36 -47,-211 -77,-285 -32,-79 -74,-151 -89,-151 -6,0 -16,30 -23,66 -16,89 -56,214 -97,303 -19,40 -31,77 -28,82 3,5 75,9 160,9 h 154 z m 621,-568 23,-50 -84,-79 c -89,-82 -114,-95 -105,-56 10,45 65,308 65,315 1,17 80,-85 101,-130 z m -2052,85 c 13,-52 61,-281 61,-294 0,-12 -43,22 -134,104 -51,46 -58,57 -53,79 8,30 93,148 107,148 5,0 14,-17 19,-37 z m 411,-95 c 0,-2 14,-79 30,-173 30,-175 35,-225 23,-225 -5,1 -48,17 -98,38 -85,35 -90,39 -93,69 -4,44 38,162 85,233 31,49 52,71 53,58 z m 1184,-74 c 46,-78 80,-182 74,-224 -2,-21 -18,-31 -97,-63 -51,-21 -96,-36 -99,-33 -3,3 7,72 21,153 15,82 27,162 27,180 0,37 9,63 21,63 5,0 28,-34 53,-76 z m -770,-211 c 20,-82 39,-158 42,-170 6,-21 3,-23 -32,-23 -63,0 -165,21 -171,36 -12,31 88,304 112,304 8,0 26,-53 49,-147 z m 375,99 c 27,-54 84,-239 78,-255 -5,-14 -111,-37 -172,-37 -25,0 -36,4 -33,13 3,6 20,73 37,147 48,200 52,206 90,132 z"
         id="path15"
         style="fill:#ffffff;stroke-width:5.03066" />
      <path
         d="m 3940,6937 c -53,-17 -133,-102 -149,-160 -54,-192 123,-364 309,-302 140,47 208,212 141,343 -54,105 -183,156 -301,119 z"
         id="path17"
         style="fill:#ffffff;stroke-width:5.03066" />
      <path
         d="m 6102,6924 c -187,-93 -172,-370 24,-443 65,-25 105,-26 165,-6 59,20 114,67 141,118 31,59 31,165 1,223 -64,120 -211,168 -331,108 z"
         id="path19"
         style="fill:#ffffff;stroke-width:5.03066" />
    </g>
    <text
       xml:space="preserve"
       style="font-size:2.82223px;line-height:1.25;font-family:sans-serif;fill:#ffffff;stroke-width:0.264583"
       x="23.546326"
       y="157.67009"
       id="text26081"><tspan
         sodipodi:role="line"
         id="tspan26079"
         style="font-style:normal;font-variant:normal;font-weight:bold;font-stretch:normal;font-family:sans-serif;-inkscape-font-specification:'sans-serif Bold';fill:#ffffff;stroke-width:0.264583"
         x="23.546326"
         y="157.67009">             Powered By ICP             </tspan></text>
    <text
       xml:space="preserve"
       style="font-size:12.2536px;line-height:1.25;font-family:sans-serif;fill:#ffffff;stroke-width:0.264583"
       x="-0.061125025"
       y="26.482014"
       id="text51658"
       transform="scale(0.71973833,1.3893938)"><tspan
         sodipodi:role="line"
         id="tspan51656"
         style="fill:#ffffff;stroke-width:0.264583"
         x="-0.061125025"
         y="26.482014"> <tspan
   style="font-style:normal;font-variant:normal;font-weight:bold;font-stretch:normal;font-family:sans-serif;-inkscape-font-specification:'sans-serif Bold'"
   id="tspan70074"> CRIPTO CRITTERS</tspan>   </tspan></text>
  </g>
</svg>
