<?xml version="1.0" standalone="no"?>
<!DOCTYPE svg PUBLIC "-//W3C//DTD SVG 20010904//EN"
 "http://www.w3.org/TR/2001/REC-SVG-20010904/DTD/svg10.dtd">
<svg version="1.0" xmlns="http://www.w3.org/2000/svg"
 width="1024.000000pt" height="1024.000000pt" viewBox="0 0 1024.000000 1024.000000"
 preserveAspectRatio="xMidYMid meet">

<g transform="translate(0.000000,1024.000000) scale(0.100000,-0.100000)"
fill="#000000" stroke="none">
<path d="M6297 9350 c-271 -46 -654 -274 -868 -518 l-64 -72 -17 50 c-23 67
-81 180 -131 255 -83 124 -266 279 -309 263 -12 -5 -16 -35 -22 -140 -7 -144
-26 -294 -52 -400 l-16 -67 -75 90 c-200 239 -512 431 -825 508 -102 25 -131
26 -148 6 -10 -12 1 -44 60 -177 74 -164 140 -339 140 -369 0 -14 -16 -10 -91
22 -190 82 -405 126 -560 116 -197 -14 -401 -83 -375 -126 4 -6 53 -46 109
-88 110 -84 277 -229 277 -242 0 -5 -33 -11 -72 -15 -94 -8 -273 -56 -378
-100 -246 -104 -558 -332 -548 -401 3 -19 13 -20 178 -27 172 -7 306 -25 302
-41 -1 -4 -43 -40 -94 -79 -279 -215 -516 -502 -665 -804 -64 -130 -86 -205
-64 -219 7 -3 74 22 149 58 114 54 269 117 288 117 3 0 -24 -37 -59 -82 -183
-235 -327 -514 -415 -803 -55 -179 -104 -437 -94 -487 7 -33 40 -18 118 54
119 108 317 249 330 235 3 -3 -12 -40 -34 -83 -93 -186 -169 -406 -222 -642
-23 -108 -51 -328 -43 -348 12 -31 48 -9 151 87 97 92 306 259 324 259 4 0
-25 -53 -63 -117 -86 -144 -257 -490 -332 -673 -187 -453 -287 -892 -287
-1255 0 -190 39 -336 125 -466 78 -116 203 -213 267 -207 47 4 47 27 -1 127
-23 48 -50 118 -62 156 -24 85 -37 239 -20 249 7 5 11 -3 11 -22 0 -45 29
-130 73 -217 85 -165 243 -282 397 -293 112 -8 130 29 56 113 -67 77 -124 172
-147 244 -29 92 -36 205 -16 254 14 33 20 37 51 37 27 0 46 -9 77 -37 52 -47
74 -91 89 -182 11 -68 34 -111 59 -111 22 0 63 47 92 106 27 54 33 81 37 148
8 147 -36 253 -157 379 -111 116 -116 129 -115 262 1 89 7 132 32 227 46 172
141 416 195 503 l19 30 -6 -34 c-14 -82 -18 -292 -7 -391 39 -338 187 -684
405 -947 l53 -63 -33 -95 c-46 -131 -64 -237 -64 -375 0 -186 41 -311 148
-453 l49 -64 -116 -6 c-199 -9 -386 -71 -518 -171 -105 -80 -208 -237 -201
-307 5 -57 23 -56 148 4 63 31 161 72 218 91 l102 35 -66 -77 c-117 -137 -182
-312 -140 -377 9 -14 23 -25 32 -25 8 0 71 40 140 90 142 102 220 148 335 196
44 19 82 34 85 34 2 0 -12 -28 -30 -62 -56 -103 -83 -247 -56 -299 19 -35 56
-22 157 55 173 129 319 202 563 279 243 78 343 136 375 221 14 36 15 50 5 87
-13 46 -53 111 -108 173 -19 21 -48 68 -66 105 -29 61 -31 74 -31 171 0 84 5
118 23 172 13 38 28 68 33 68 5 0 53 -13 107 -29 456 -135 989 -135 1446 1 78
23 101 26 107 16 4 -7 18 -49 30 -93 40 -147 13 -287 -77 -403 -104 -132 -123
-176 -109 -249 9 -50 74 -112 159 -153 36 -17 137 -55 225 -85 236 -80 339
-136 617 -332 53 -38 54 -38 79 -19 26 19 32 108 10 182 -19 64 -58 149 -84
178 -15 18 -15 18 9 12 64 -17 278 -136 400 -221 74 -52 142 -95 151 -95 32 0
42 27 37 103 -7 104 -68 217 -181 335 l-41 42 54 -16 c77 -23 238 -88 321
-130 102 -51 134 -33 104 57 -23 68 -88 165 -156 230 -129 124 -371 209 -596
209 l-84 0 52 68 c165 214 193 484 83 814 l-35 107 54 68 c292 363 430 789
400 1228 -6 83 -10 151 -8 153 6 7 98 -198 139 -311 91 -250 130 -458 107
-563 -11 -49 -23 -66 -95 -142 -91 -97 -125 -149 -155 -240 -23 -67 -28 -181
-11 -242 15 -53 72 -143 100 -157 36 -18 55 6 79 99 32 125 82 198 146 214 60
15 85 -19 85 -118 0 -126 -53 -258 -157 -388 -87 -109 -83 -140 17 -140 159 0
325 118 419 299 39 76 70 174 72 227 l0 29 11 -25 c28 -69 -13 -263 -88 -411
-41 -83 -42 -113 -2 -117 72 -8 241 141 311 275 79 151 102 345 73 603 -43
371 -139 721 -298 1095 -90 211 -292 609 -367 724 l-15 24 30 -16 c53 -27 216
-159 311 -250 116 -113 129 -113 125 -3 -8 221 -138 669 -269 930 -19 37 -33
70 -31 71 5 5 146 -81 203 -125 28 -20 90 -72 139 -114 49 -42 96 -75 105 -74
34 7 7 209 -58 437 -100 347 -255 643 -450 861 -35 39 -62 73 -60 75 8 7 296
-93 368 -129 56 -27 78 -33 88 -25 7 6 13 17 13 23 0 21 -117 251 -175 346
-160 258 -387 503 -608 658 -32 22 -54 42 -50 45 35 20 282 57 380 57 94 0
113 5 113 30 0 28 -169 181 -285 259 -229 153 -424 220 -697 238 -54 3 -98 10
-98 14 0 19 282 251 376 309 74 46 25 85 -155 122 -79 16 -121 19 -236 15 -77
-3 -174 -13 -215 -22 -105 -23 -268 -78 -367 -125 -56 -26 -83 -34 -83 -25 0
31 68 211 138 365 90 199 101 232 83 254 -8 9 -16 15 -20 15 -3 -1 -28 -5 -54
-9z m-2197 -1501 c199 -32 386 -178 480 -374 167 -350 31 -766 -305 -926 -212
-102 -423 -105 -623 -9 -145 69 -275 216 -328 370 -68 196 -41 436 71 615 46
73 143 177 208 221 142 96 318 132 497 103z m2290 -29 c106 -35 189 -88 271
-169 119 -119 185 -252 210 -421 20 -142 1 -263 -63 -400 -34 -70 -55 -100
-127 -170 -140 -139 -276 -194 -471 -193 -158 2 -281 39 -410 126 -95 64 -164
146 -229 275 -126 249 -76 567 121 777 94 101 197 158 363 199 11 3 76 3 145
2 95 -3 141 -9 190 -26z m-2834 -1491 c38 -12 156 -61 263 -111 769 -355 1492
-402 2206 -143 66 24 208 83 315 130 256 114 321 137 406 143 124 8 210 -37
250 -133 37 -90 27 -257 -27 -420 -120 -361 -457 -710 -874 -905 -307 -144
-619 -211 -985 -212 -475 0 -896 124 -1271 373 -148 99 -348 292 -448 434 -82
117 -175 308 -202 413 -29 115 -25 256 10 325 54 111 200 154 357 106z"/>
<path d="M3969 7417 c-82 -23 -162 -98 -206 -192 -25 -53 -28 -71 -28 -160 0
-88 4 -107 28 -160 34 -73 85 -128 152 -163 42 -22 63 -27 130 -27 140 0 236
60 294 185 23 48 26 68 26 160 0 93 -3 112 -27 162 -71 153 -227 235 -369 195z
m269 -213 c17 -12 22 -25 22 -60 0 -58 -28 -89 -73 -80 -46 9 -67 33 -67 78 0
67 63 101 118 62z"/>
<path d="M5990 7403 c-28 -10 -66 -37 -102 -73 -48 -48 -60 -68 -78 -129 -32
-103 -25 -212 17 -302 58 -124 131 -178 253 -187 131 -9 235 50 292 165 31 64
33 73 33 178 0 104 -2 114 -32 176 -75 152 -235 224 -383 172z m280 -210 c40
-51 4 -132 -58 -133 -34 0 -72 43 -72 81 0 73 86 107 130 52z"/>
<path d="M3640 6069 c-73 -29 -140 -137 -140 -227 0 -45 3 -54 23 -63 29 -13
69 1 93 33 l18 24 60 -91 c80 -120 253 -292 376 -374 315 -209 706 -313 1115
-298 186 7 292 23 465 71 266 73 493 198 669 369 83 81 180 206 218 280 l25
50 18 -30 c20 -34 61 -49 90 -33 16 9 20 21 20 62 0 71 -17 121 -58 169 -64
75 -156 92 -213 41 -26 -23 -31 -34 -25 -55 3 -14 20 -34 36 -44 17 -9 30 -20
30 -24 0 -19 -140 -187 -216 -258 -185 -173 -399 -287 -665 -355 -171 -44
-275 -56 -474 -56 -360 0 -687 95 -964 281 -110 73 -270 223 -341 319 l-50 68
30 30 c38 38 38 56 1 93 -24 23 -38 29 -73 28 -24 0 -54 -5 -68 -10z"/>
</g>
</svg>
